HIERARCHY
ROOT Hips
{
	OFFSET -1.602300 6.242603 43.997101
	CHANNELS 6 Xposition Yposition Zposition Zrotation Xrotation Yrotation
	JOINT Chest
	{
		OFFSET -0.204900 1.598101 7.917301
		CHANNELS 6 Xposition Yposition Zposition Zrotation Xrotation Yrotation
		JOINT Chest2
		{
			OFFSET 0.000000 0.000000 3.404099
			CHANNELS 6 Xposition Yposition Zposition Zrotation Xrotation Yrotation
			JOINT Neck
			{
				OFFSET 0.000000 0.000000 7.928600
				CHANNELS 6 Xposition Yposition Zposition Zrotation Xrotation Yrotation
				JOINT Head
				{
					OFFSET 0.000000 0.000000 2.173897
					CHANNELS 6 Xposition Yposition Zposition Zrotation Xrotation Yrotation
					End Site
					{
						OFFSET 0.000000 0.000001 10.404503
					}
				}
			}
			JOINT LeftCollar
			{
				OFFSET 2.833800 -1.396299 4.843300
				CHANNELS 6 Xposition Yposition Zposition Zrotation Xrotation Yrotation
				JOINT LeftShoulder
				{
					OFFSET 4.363600 0.000000 0.000000
					CHANNELS 6 Xposition Yposition Zposition Zrotation Xrotation Yrotation
					JOINT LeftElbow
					{
						OFFSET 0.000000 -0.000001 -10.306900
						CHANNELS 6 Xposition Yposition Zposition Zrotation Xrotation Yrotation
						JOINT LeftWrist
						{
							OFFSET 0.000000 -0.000001 -12.404900
							CHANNELS 6 Xposition Yposition Zposition Zrotation Xrotation Yrotation
							End Site
							{
								OFFSET 0.000000 0.000000 -2.173901
							}
						}
					}
				}
			}
			JOINT RightCollar
			{
				OFFSET -2.354800 -1.897200 5.063099
				CHANNELS 6 Xposition Yposition Zposition Zrotation Xrotation Yrotation
				JOINT RightShoulder
				{
					OFFSET -4.375800 0.000000 0.000000
					CHANNELS 6 Xposition Yposition Zposition Zrotation Xrotation Yrotation
					JOINT RightElbow
					{
						OFFSET 0.000000 -0.000001 -10.005001
						CHANNELS 6 Xposition Yposition Zposition Zrotation Xrotation Yrotation
						JOINT RightWrist
						{
							OFFSET 0.000000 -0.000001 -13.174900
							CHANNELS 6 Xposition Yposition Zposition Zrotation Xrotation Yrotation
							End Site
							{
								OFFSET 0.000000 0.000000 -2.173901
							}
						}
					}
				}
			}
		}
	}
	JOINT LeftHip
	{
		OFFSET 2.240600 0.386800 -2.614101
		CHANNELS 6 Xposition Yposition Zposition Zrotation Xrotation Yrotation
		JOINT LeftKnee
		{
			OFFSET 0.000000 -0.000001 -18.592899
			CHANNELS 6 Xposition Yposition Zposition Zrotation Xrotation Yrotation
			JOINT LeftAnkle
			{
				OFFSET 0.000000 -0.000001 -18.765800
				CHANNELS 6 Xposition Yposition Zposition Zrotation Xrotation Yrotation
				End Site
				{
					OFFSET 0.000000 -8.655000 0.000000
				}
			}
		}
	}
	JOINT RightHip
	{
		OFFSET -2.014900 -0.220900 -2.615898
		CHANNELS 6 Xposition Yposition Zposition Zrotation Xrotation Yrotation
		JOINT RightKnee
		{
			OFFSET 0.000000 -0.000001 -18.633900
			CHANNELS 6 Xposition Yposition Zposition Zrotation Xrotation Yrotation
			JOINT RightAnkle
			{
				OFFSET 0.000000 -0.000001 -18.285101
				CHANNELS 6 Xposition Yposition Zposition Zrotation Xrotation Yrotation
				End Site
				{
					OFFSET 0.000000 -7.524500 0.000000
				}
			}
		}
	}
}
MOTION
Frames: 5
Frame Time: 0.041667
-8.503400 21.027201 10.157513 -30.242654 35.884120 -6.767601 -0.204898 1.598102 7.917307 -12.277778 3.158146 12.666507 -0.000001 0.000003 3.404103 -0.242298 -17.400873 -1.499322 -0.000005 -0.000000 7.928607 54.535683 -8.097489 -10.001859 0.000003 0.000000 2.173908 9.972860 -2.593844 11.993002 2.833800 -1.396299 4.843309 14.887104 3.751967 24.818643 4.363589 -0.000000 -0.000005 0.952658 15.651008 -98.227601 0.000001 -0.000003 -10.306890 598.482649 -182.365887 537.214377 0.000006 -0.000002 -12.404896 -11.491532 361.082896 -321.516566 -2.354800 -1.897199 5.063107 -10.279034 -3.441299 12.893435 -4.375789 0.000000 -0.000005 13.219338 -4.153367 128.923058 0.000001 -0.000000 -10.004995 -596.124485 -178.197778 -540.747497 0.000006 0.000005 -13.174905 -272.367891 -160.366203 133.466363 2.240599 0.386804 -2.614103 135.891927 -39.032192 147.515229 0.000002 -0.000001 -18.592899 -7.919082 36.188982 12.494539 -0.000000 -0.000000 -18.765800 -31.168803 25.738017 14.011198 -2.014899 -0.220894 -2.615901 -101.355028 -30.909717 -112.554721 -0.000001 0.000002 -18.633886 86.105975 -15.877109 -150.065581 -0.000004 -0.000006 -18.285084 -71.601604 28.381311 -155.258915
-8.506000 21.039001 10.153912 -30.242193 35.808493 -6.843269 -0.204900 1.598099 7.917314 -12.274317 3.120384 12.673291 0.000001 0.000004 3.404103 -0.242510 -17.375439 -1.496811 0.000000 -0.000002 7.928598 54.600129 -7.923888 -10.086968 0.000000 0.000001 2.173901 10.153076 -2.362972 11.941234 2.833804 -1.396301 4.843307 14.983306 3.752657 24.972261 4.363592 0.000000 -0.000003 0.926578 15.822878 -98.171374 0.000000 0.000000 -10.306890 599.107912 -182.308882 537.224977 0.000007 -0.000002 -12.404899 -11.691631 361.000988 -321.268357 -2.354795 -1.897200 5.063102 -10.173208 -3.334260 12.839382 -4.375792 0.000002 -0.000012 13.081365 -4.110835 128.968889 -0.000004 0.000001 -10.004991 -596.325020 -178.201452 -540.778971 0.000007 0.000009 -13.174904 -272.430073 -160.422921 133.586629 2.240598 0.386801 -2.614106 135.829486 -39.067787 147.398255 -0.000003 0.000003 -18.592896 -8.097978 36.135351 12.590178 0.000000 0.000000 -18.765799 -31.022723 25.748784 14.022198 -2.014901 -0.220894 -2.615899 -101.315071 -31.003543 -112.514061 -0.000002 0.000007 -18.633886 86.114827 -15.840156 -150.044803 -0.000004 -0.000006 -18.285084 -71.597847 28.384482 -155.262808
-8.508801 21.050602 10.149906 -30.228498 35.728248 -6.920790 -0.204899 1.598103 7.917308 -12.147914 3.076531 12.624898 0.000000 0.000004 3.404106 -0.503696 -17.343718 -1.639301 -0.000002 -0.000002 7.928600 54.714176 -7.555793 -10.057744 0.000001 -0.000001 2.173897 10.346232 -2.255700 11.873506 2.833806 -1.396301 4.843307 14.941186 4.053214 24.547958 4.363591 0.000001 -0.000003 0.857665 15.718523 -97.322580 -0.000002 -0.000000 -10.306894 599.839944 -182.244596 537.244648 0.000006 -0.000003 -12.404896 -11.917761 360.879001 -321.046184 -2.354796 -1.897201 5.063100 -9.931335 -3.273680 12.940833 -4.375792 0.000004 -0.000009 13.000756 -4.014964 129.009638 -0.000001 0.000001 -10.004994 -596.449712 -178.215222 -540.787932 0.000009 0.000005 -13.174903 -272.530449 -160.494323 133.756988 2.240599 0.386803 -2.614112 135.760856 -39.105514 147.290803 0.000001 0.000002 -18.592899 -8.305357 36.084105 12.693810 -0.000000 -0.000001 -18.765800 -30.845892 25.749280 14.017653 -2.014901 -0.220896 -2.615902 -101.283502 -31.098831 -112.467691 -0.000000 0.000007 -18.633884 86.115039 -15.805534 -150.022906 -0.000004 -0.000006 -18.285086 -71.596556 28.387006 -155.264912
-8.512202 21.062698 10.146099 -30.197950 35.626086 -7.019389 -0.204899 1.598102 7.917311 -12.023041 3.048542 12.592943 0.000001 0.000003 3.404106 -0.524606 -17.320248 -1.627004 -0.000005 0.000001 7.928601 54.530745 -7.238570 -10.052777 0.000000 0.000002 2.173895 10.550059 -2.204890 11.802246 2.833800 -1.396298 4.843305 14.450817 4.259309 24.731024 4.363593 0.000004 -0.000002 1.215829 15.470138 -97.130406 -0.000001 -0.000004 -10.306895 600.457995 -182.161965 537.284974 0.000007 -0.000003 -12.404895 -12.136330 360.728081 -320.870539 -2.354800 -1.897198 5.063103 -9.966359 -3.262937 13.021611 -4.375789 0.000000 -0.000010 12.965838 -3.864353 128.985185 -0.000001 0.000002 -10.004993 -596.427090 -178.232625 -540.782796 0.000002 0.000005 -13.174901 -272.751010 -160.565371 133.947864 2.240599 0.386803 -2.614109 135.651150 -39.129262 147.148844 -0.000000 0.000001 -18.592894 -8.494215 36.053034 12.779545 -0.000001 0.000000 -18.765800 -30.696274 25.741894 14.010444 -2.014901 -0.220895 -2.615900 -101.256667 -31.212182 -112.400147 -0.000002 0.000006 -18.633884 86.116815 -15.769280 -149.997839 -0.000005 -0.000006 -18.285088 -71.592451 28.389854 -155.268928
-8.516601 21.075401 10.142906 -30.149534 35.521556 -7.121000 -0.204898 1.598102 7.917310 -11.957556 3.050448 12.582469 -0.000001 0.000003 3.404101 -0.532079 -17.314557 -1.620531 -0.000005 0.000002 7.928601 54.400059 -7.013149 -10.053367 0.000001 -0.000002 2.173897 10.687193 -2.145391 11.737828 2.833801 -1.396298 4.843306 14.196890 4.333506 24.799032 4.363593 0.000001 0.000001 1.413736 15.347556 -96.818908 -0.000000 -0.000001 -10.306894 601.097901 -182.076970 537.330873 0.000002 -0.000003 -12.404895 -11.993114 360.514678 -321.438893 -2.354799 -1.897198 5.063099 -10.150109 -3.417479 13.059627 -4.375792 0.000004 -0.000010 13.085473 -3.546554 128.940953 -0.000001 -0.000001 -10.004995 -596.316933 -178.257337 -540.768042 0.000007 0.000006 -13.174894 -273.121862 -160.623592 134.127061 2.240601 0.386802 -2.614103 135.538206 -39.152827 147.020150 -0.000003 0.000002 -18.592897 -8.626694 36.037714 12.832558 0.000001 0.000001 -18.765795 -30.586663 25.730701 14.007019 -2.014901 -0.220895 -2.615899 -101.239386 -31.315878 -112.326914 -0.000001 0.000005 -18.633888 86.124526 -15.733426 -149.969781 -0.000005 -0.000006 -18.285084 -71.586864 28.392813 -155.274133
